<?xml version="1.0" encoding="UTF-8" standalone="no"?>
<svg
   width="256"
   height="256"
   viewBox="0 0 256 256"
   version="1.1"
   id="svg172"
   xmlns="http://www.w3.org/2000/svg"
   xmlns:svg="http://www.w3.org/2000/svg">
  <defs
     id="defs146">
    <linearGradient
       id="a"
       x1="446.89999"
       y1="76.849998"
       x2="47.939999"
       y2="461.76999"
       gradientUnits="userSpaceOnUse"
       gradientTransform="matrix(0.51605625,0,0,0.51605625,-8.2569,-2.267782e-5)">
      <stop
         offset=".05"
         stop-color="#fff44f"
         id="stop2" />
      <stop
         offset=".11"
         stop-color="#ffe847"
         id="stop4" />
      <stop
         offset=".22"
         stop-color="#ffc830"
         id="stop6" />
      <stop
         offset=".37"
         stop-color="#ff980e"
         id="stop8" />
      <stop
         offset=".4"
         stop-color="#ff8b16"
         id="stop10" />
      <stop
         offset=".46"
         stop-color="#ff672a"
         id="stop12" />
      <stop
         offset=".53"
         stop-color="#ff3647"
         id="stop14" />
      <stop
         offset=".7"
         stop-color="#e31587"
         id="stop16" />
    </linearGradient>
    <radialGradient
       id="b"
       cx="428.45999"
       cy="55.060001"
       r="501.01001"
       gradientUnits="userSpaceOnUse"
       gradientTransform="matrix(0.51605625,0,0,0.51605625,-8.2569,-2.267782e-5)">
      <stop
         offset=".13"
         stop-color="#ffbd4f"
         id="stop19" />
      <stop
         offset=".19"
         stop-color="#ffac31"
         id="stop21" />
      <stop
         offset=".25"
         stop-color="#ff9d17"
         id="stop23" />
      <stop
         offset=".28"
         stop-color="#ff980e"
         id="stop25" />
      <stop
         offset=".4"
         stop-color="#ff563b"
         id="stop27" />
      <stop
         offset=".47"
         stop-color="#ff3750"
         id="stop29" />
      <stop
         offset=".71"
         stop-color="#f5156c"
         id="stop31" />
      <stop
         offset=".78"
         stop-color="#eb0878"
         id="stop33" />
      <stop
         offset=".86"
         stop-color="#e50080"
         id="stop35" />
    </radialGradient>
    <radialGradient
       id="c"
       cx="245.39"
       cy="259.88"
       r="501.01001"
       gradientUnits="userSpaceOnUse"
       gradientTransform="matrix(0.51605625,0,0,0.51605625,-8.2569,-2.267782e-5)">
      <stop
         offset=".3"
         stop-color="#960e18"
         id="stop38" />
      <stop
         offset=".35"
         stop-color="#b11927"
         stop-opacity=".74"
         id="stop40" />
      <stop
         offset=".43"
         stop-color="#db293d"
         stop-opacity=".34"
         id="stop42" />
      <stop
         offset=".5"
         stop-color="#f5334b"
         stop-opacity=".09"
         id="stop44" />
      <stop
         offset=".53"
         stop-color="#ff3750"
         stop-opacity="0"
         id="stop46" />
    </radialGradient>
    <radialGradient
       id="d"
       cx="305.79999"
       cy="-58.639999"
       r="362.95999"
       gradientUnits="userSpaceOnUse"
       gradientTransform="matrix(0.51605625,0,0,0.51605625,-8.2569,-2.267782e-5)">
      <stop
         offset=".13"
         stop-color="#fff44f"
         id="stop49" />
      <stop
         offset=".25"
         stop-color="#ffdc3e"
         id="stop51" />
      <stop
         offset=".51"
         stop-color="#ff9d12"
         id="stop53" />
      <stop
         offset=".53"
         stop-color="#ff980e"
         id="stop55" />
    </radialGradient>
    <radialGradient
       id="e"
       cx="189.98"
       cy="390.75"
       r="238.55"
       gradientUnits="userSpaceOnUse"
       gradientTransform="matrix(0.51605625,0,0,0.51605625,-8.2569,-2.267782e-5)">
      <stop
         offset=".35"
         stop-color="#3a8ee6"
         id="stop58" />
      <stop
         offset=".47"
         stop-color="#5c79f0"
         id="stop60" />
      <stop
         offset=".67"
         stop-color="#9059ff"
         id="stop62" />
      <stop
         offset="1"
         stop-color="#c139e6"
         id="stop64" />
    </radialGradient>
    <radialGradient
       id="f"
       cx="252.16"
       cy="201.25"
       r="126.48"
       gradientTransform="matrix(0.50057456,-0.1238535,0.14449575,0.58830412,-33.21338,16.219625)"
       gradientUnits="userSpaceOnUse">
      <stop
         offset=".21"
         stop-color="#9059ff"
         stop-opacity="0"
         id="stop67" />
      <stop
         offset=".28"
         stop-color="#8c4ff3"
         stop-opacity=".06"
         id="stop69" />
      <stop
         offset=".75"
         stop-color="#7716a8"
         stop-opacity=".45"
         id="stop71" />
      <stop
         offset=".97"
         stop-color="#6e008b"
         stop-opacity=".6"
         id="stop73" />
    </radialGradient>
    <radialGradient
       id="g"
       cx="239.06"
       cy="34.560001"
       r="171.62"
       gradientUnits="userSpaceOnUse"
       gradientTransform="matrix(0.51605625,0,0,0.51605625,-8.2569,-2.267782e-5)">
      <stop
         offset="0"
         stop-color="#ffe226"
         id="stop76" />
      <stop
         offset=".12"
         stop-color="#ffdb27"
         id="stop78" />
      <stop
         offset=".3"
         stop-color="#ffc82a"
         id="stop80" />
      <stop
         offset=".5"
         stop-color="#ffa930"
         id="stop82" />
      <stop
         offset=".73"
         stop-color="#ff7e37"
         id="stop84" />
      <stop
         offset=".79"
         stop-color="#ff7139"
         id="stop86" />
    </radialGradient>
    <radialGradient
       id="h"
       cx="373.95999"
       cy="-74.290001"
       r="732.21002"
       gradientUnits="userSpaceOnUse"
       gradientTransform="matrix(0.51605625,0,0,0.51605625,-8.2569,-2.267782e-5)">
      <stop
         offset=".11"
         stop-color="#fff44f"
         id="stop89" />
      <stop
         offset=".46"
         stop-color="#ff980e"
         id="stop91" />
      <stop
         offset=".62"
         stop-color="#ff5634"
         id="stop93" />
      <stop
         offset=".72"
         stop-color="#ff3647"
         id="stop95" />
      <stop
         offset=".9"
         stop-color="#e31587"
         id="stop97" />
    </radialGradient>
    <radialGradient
       id="i"
       cx="304.59"
       cy="7.0700002"
       r="536.37"
       gradientTransform="matrix(0.05160562,0.51089569,-0.33543656,0.03612394,134.85582,-152.92297)"
       gradientUnits="userSpaceOnUse">
      <stop
         offset="0"
         stop-color="#fff44f"
         id="stop100" />
      <stop
         offset=".06"
         stop-color="#ffe847"
         id="stop102" />
      <stop
         offset=".17"
         stop-color="#ffc830"
         id="stop104" />
      <stop
         offset=".3"
         stop-color="#ff980e"
         id="stop106" />
      <stop
         offset=".36"
         stop-color="#ff8b16"
         id="stop108" />
      <stop
         offset=".45"
         stop-color="#ff672a"
         id="stop110" />
      <stop
         offset=".57"
         stop-color="#ff3647"
         id="stop112" />
      <stop
         offset=".74"
         stop-color="#e31587"
         id="stop114" />
    </radialGradient>
    <radialGradient
       id="j"
       cx="235.02"
       cy="98.120003"
       r="457.12"
       gradientUnits="userSpaceOnUse"
       gradientTransform="matrix(0.51605625,0,0,0.51605625,-8.2569,-2.267782e-5)">
      <stop
         offset=".14"
         stop-color="#fff44f"
         id="stop117" />
      <stop
         offset=".48"
         stop-color="#ff980e"
         id="stop119" />
      <stop
         offset=".59"
         stop-color="#ff5634"
         id="stop121" />
      <stop
         offset=".66"
         stop-color="#ff3647"
         id="stop123" />
      <stop
         offset=".9"
         stop-color="#e31587"
         id="stop125" />
    </radialGradient>
    <radialGradient
       id="k"
       cx="355.69"
       cy="124.88"
       r="500.32001"
       gradientUnits="userSpaceOnUse"
       gradientTransform="matrix(0.51605625,0,0,0.51605625,-8.2569,-2.267782e-5)">
      <stop
         offset=".09"
         stop-color="#fff44f"
         id="stop128" />
      <stop
         offset=".23"
         stop-color="#ffe141"
         id="stop130" />
      <stop
         offset=".51"
         stop-color="#ffaf1e"
         id="stop132" />
      <stop
         offset=".63"
         stop-color="#ff980e"
         id="stop134" />
    </radialGradient>
    <linearGradient
       id="l"
       x1="442.10001"
       y1="74.790001"
       x2="102.64"
       y2="414.26001"
       gradientUnits="userSpaceOnUse"
       gradientTransform="matrix(0.51605625,0,0,0.51605625,-8.2569,-2.267782e-5)">
      <stop
         offset=".17"
         stop-color="#fff44f"
         stop-opacity=".8"
         id="stop137" />
      <stop
         offset=".27"
         stop-color="#fff44f"
         stop-opacity=".63"
         id="stop139" />
      <stop
         offset=".49"
         stop-color="#fff44f"
         stop-opacity=".22"
         id="stop141" />
      <stop
         offset=".6"
         stop-color="#fff44f"
         stop-opacity="0"
         id="stop143" />
    </linearGradient>
  </defs>
  <g
     id="g1003"
     transform="translate(4.1423209)">
    <path
       d="m 238.78439,85.861416 c -5.38763,-12.968494 -16.30738,-26.9691 -24.87907,-31.391702 6.97708,13.680651 11.01264,27.402587 12.55564,37.641143 0,0 0,0.07225 0.0258,0.206422 -14.02124,-34.95765 -37.80111,-49.056307 -57.22031,-79.746172 -0.98567,-1.548169 -1.96617,-3.0963369 -2.92604,-4.7528775 -0.54186,-0.9340618 -0.98051,-1.780394 -1.36239,-2.5802812 a 22.56714,22.56714 0 0 1 -1.85264,-4.88705273 0.32511544,0.32511544 0 0 0 -0.27867,-0.33543656 0.44380837,0.44380837 0 0 0 -0.23223,0 0.24254644,0.24254644 0 0 0 -0.0568,0.03612394 c -0.031,0 -0.0619,0.03612394 -0.0929,0.04644506 l 0.0516,-0.06708731 C 131.36212,18.278689 120.79329,52.033928 119.8231,68.924449 A 62.066085,62.066085 0 0 0 85.66534,82.078723 36.69676,36.69676 0 0 0 82.455467,79.653259 57.483506,57.483506 0 0 1 82.10971,49.340115 C 69.368281,55.145748 59.460001,64.305746 52.255856,72.41299 h -0.05677 C 47.28107,66.184191 47.626827,45.639992 47.905498,41.351564 c -0.05677,-0.268349 -3.664,1.873284 -4.12845,2.1984 A 90.175669,90.175669 0 0 0 31.65489,53.933015 108.4647,108.4647 0 0 0 20.074588,67.820089 104.68717,104.68717 0 0 0 3.431774,105.39931 c -0.05677,0.26835 -0.108372,0.54702 -0.165138,0.82053 -0.232225,1.08888 -1.073397,6.55391 -1.223053,7.74084 v 0.27351 A 118.22849,118.22849 0 0 0 0,131.34662 v 0.63475 c 0,68.49098 55.527652,124.01864 124.01864,124.01864 61.3436,0 112.2732,-44.53566 122.24856,-103.0358 0.20642,-1.58429 0.37672,-3.18406 0.5625,-4.78384 2.46675,-21.27184 -0.27351,-43.62739 -8.04531,-62.318954 z M 95.83681,182.94192 c 0.57798,0.27351 1.125,0.57799 1.71846,0.84633 l 0.0826,0.0516 c -0.59346,-0.28899 -1.19725,-0.5883 -1.79587,-0.89794 z M 124.2199,108.13957 Z M 226.49709,92.374045 v -0.118693 0.134175 z"
       fill="url(#a)"
       id="path148"
       style="fill:url(#a);stroke-width:0.516056" />
    <path
       d="m 238.78439,85.861416 c -5.38763,-12.968494 -16.30738,-26.9691 -24.87907,-31.391702 6.97708,13.680651 11.01264,27.402587 12.55564,37.641143 v 0.252867 c 11.70416,31.727146 5.3257,63.990976 -3.8601,83.704326 C 208.38867,206.56698 173.9832,237.82966 120.12241,236.3073 61.978355,234.65592 10.718488,191.45685 1.145645,134.92289 c -1.74427,-8.92261 0,-13.44843 0.877295,-20.6887 -1.068236,5.57857 -1.47592,7.19383 -2.007458,17.11243 v 0.63475 c 0,68.49098 55.527652,124.01864 124.018638,124.01864 61.34361,0 112.2732,-44.53566 122.24856,-103.0358 0.20643,-1.58429 0.37673,-3.18406 0.56251,-4.78384 2.45126,-21.27184 -0.289,-43.62739 -8.0608,-62.318954 z"
       fill="url(#b)"
       id="path150"
       style="fill:url(#b);stroke-width:0.516056" />
    <path
       d="m 238.78439,85.861416 c -5.38763,-12.968494 -16.30738,-26.9691 -24.87907,-31.391702 6.97708,13.680651 11.01264,27.402587 12.55564,37.641143 v 0.252867 c 11.70416,31.727146 5.3257,63.990976 -3.8601,83.704326 C 208.38867,206.56698 173.9832,237.82966 120.12241,236.3073 61.978355,234.65592 10.718488,191.45685 1.145645,134.92289 c -1.74427,-8.92261 0,-13.44843 0.877295,-20.6887 -1.068236,5.57857 -1.47592,7.19383 -2.007458,17.11243 v 0.63475 c 0,68.49098 55.527652,124.01864 124.018638,124.01864 61.34361,0 112.2732,-44.53566 122.24856,-103.0358 0.20643,-1.58429 0.37673,-3.18406 0.56251,-4.78384 2.45126,-21.27184 -0.289,-43.62739 -8.0608,-62.318954 z"
       fill="url(#c)"
       id="path152"
       style="fill:url(#c);stroke-width:0.516056" />
    <path
       d="m 178.51418,100.43485 c 0.27351,0.19094 0.51605,0.38188 0.77408,0.57282 A 67.34018,67.34018 0 0 0 167.76989,85.980108 C 129.22048,47.430707 157.66551,2.3893178 162.45967,0.09802801 l 0.0516,-0.06708731 C 131.35696,18.278689 120.78813,52.033928 119.81794,68.924449 c 1.44496,-0.09805 2.88475,-0.221904 4.35551,-0.221904 23.24834,0 43.49839,12.787874 54.34073,31.732305 z"
       fill="url(#d)"
       id="path154"
       style="fill:url(#d);stroke-width:0.516056" />
    <path
       d="m 124.25086,108.13441 c -0.20126,3.09634 -11.10037,13.72709 -14.91402,13.72709 -35.267287,0 -40.99035,21.33377 -40.99035,21.33377 1.548168,17.96908 14.067693,32.76441 29.21394,40.59298 0.69152,0.35608 1.3882,0.67604 2.06423,0.99599 1.21273,0.51606 2.43062,1.03212 3.64336,1.49141 a 55.156092,55.156092 0 0 0 16.13707,3.09633 c 61.81322,2.90024 73.79605,-73.90957 29.18299,-96.213529 11.42032,-1.986817 23.27929,2.611245 29.90029,7.260919 -10.83718,-18.944433 -31.09238,-31.732306 -54.34072,-31.732306 -1.47076,0 -2.91056,0.123853 -4.35551,0.221904 a 62.066085,62.066085 0 0 0 -34.1268,13.169755 c 1.89392,1.604935 4.0304,3.741408 8.52525,8.169171 8.43236,8.318826 30.01383,16.880206 30.06027,17.886516 z"
       fill="url(#e)"
       id="path156"
       style="fill:url(#e);stroke-width:0.516056" />
    <path
       d="m 124.25086,108.13441 c -0.20126,3.09634 -11.10037,13.72709 -14.91402,13.72709 -35.267287,0 -40.99035,21.33377 -40.99035,21.33377 1.548168,17.96908 14.067693,32.76441 29.21394,40.59298 0.69152,0.35608 1.3882,0.67604 2.06423,0.99599 1.21273,0.51606 2.43062,1.03212 3.64336,1.49141 a 55.156092,55.156092 0 0 0 16.13707,3.09633 c 61.81322,2.90024 73.79605,-73.90957 29.18299,-96.213529 11.42032,-1.986817 23.27929,2.611245 29.90029,7.260919 -10.83718,-18.944433 -31.09238,-31.732306 -54.34072,-31.732306 -1.47076,0 -2.91056,0.123853 -4.35551,0.221904 a 62.066085,62.066085 0 0 0 -34.1268,13.169755 c 1.89392,1.604935 4.0304,3.741408 8.52525,8.169171 8.43236,8.318826 30.01383,16.880206 30.06027,17.886516 z"
       fill="url(#f)"
       id="path158"
       style="fill:url(#f);stroke-width:0.516056" />
    <path
       d="m 79.900989,77.955434 c 1.00631,0.650231 1.832,1.19725 2.580281,1.697825 A 57.483506,57.483506 0 0 1 82.135513,49.340115 C 69.394084,55.145748 59.485804,64.305746 52.281659,72.41299 c 0.583143,-0.01548 18.572864,-0.340597 27.61933,5.542444 z"
       fill="url(#g)"
       id="path160"
       style="fill:url(#g);stroke-width:0.516056" />
    <path
       d="m 1.145645,134.92289 c 9.572843,56.53396 60.83271,99.73303 119.018055,101.38441 53.86079,1.52236 88.24562,-29.74032 102.47845,-60.23925 9.1858,-19.71851 15.56425,-51.97718 3.8601,-83.704326 v -0.237386 c 0,0.03096 0,0.07225 0.0258,0.206423 4.3968,28.728859 -10.21275,56.559769 -33.0534,75.380339 a 3.7672106,3.7672106 0 0 0 -0.0671,0.15998 c -44.50985,36.24263 -87.09997,21.8653 -95.72327,15.99774 -0.59863,-0.28899 -1.20241,-0.5883 -1.80104,-0.89793 -25.952468,-12.38535 -36.670956,-36.04653 -34.374506,-56.32238 -21.906587,0 -29.379082,-18.48514 -29.379082,-18.48514 0,0 19.672064,-14.026412 45.59873,-1.82684 24.012098,11.30163 46.563758,1.832 46.563758,1.82684 -0.0464,-1.00631 -21.62792,-9.593489 -30.0448,-17.886513 -4.49485,-4.427763 -6.63132,-6.564235 -8.52525,-8.16917 A 36.69676,36.69676 0 0 0 82.512234,79.684222 C 81.774273,79.168166 80.964065,78.65211 79.931952,77.986397 70.885486,72.103356 52.895765,72.428471 52.302301,72.443953 h -0.05677 c -4.918012,-6.228799 -4.572255,-26.772998 -4.293584,-31.061426 -0.05677,-0.268349 -3.664,1.873285 -4.12845,2.1984 A 90.175669,90.175669 0 0 0 31.701335,53.963979 108.4647,108.4647 0 0 0 20.121033,67.851052 104.68717,104.68717 0 0 0 3.478219,105.43027 c -0.09805,0.23739 -4.510331,19.50177 -2.332574,29.49262 z"
       fill="url(#h)"
       id="path162"
       style="fill:url(#h);stroke-width:0.516056" />
    <path
       d="m 167.76989,85.980108 a 67.34018,67.34018 0 0 1 11.51837,15.027562 23.924368,23.924368 0 0 1 1.8578,1.54817 c 28.11475,25.88538 13.40715,62.53054 12.2873,65.16242 22.84065,-18.82057 37.45021,-46.65148 33.05341,-75.380339 -14.02125,-34.978292 -37.80112,-49.076949 -57.22032,-79.766814 -0.98567,-1.548169 -1.96617,-3.0963369 -2.92604,-4.7528775 -0.54186,-0.9340618 -0.98051,-1.780394 -1.36239,-2.5802812 a 22.56714,22.56714 0 0 1 -1.85264,-4.88705273 0.32511544,0.32511544 0 0 0 -0.27867,-0.33543656 0.44380837,0.44380837 0 0 0 -0.23223,0 0.24254644,0.24254644 0 0 0 -0.0568,0.03612394 c -0.031,0 -0.0619,0.03612394 -0.0929,0.04644506 -4.79932,2.29128979 -33.24435,47.33267899 5.30506,85.88207999 z"
       fill="url(#i)"
       id="path164"
       style="fill:url(#i);stroke-width:0.516056" />
    <path
       d="m 181.13574,102.53004 a 23.924368,23.924368 0 0 0 -1.8578,-1.54817 c -0.25287,-0.19094 -0.51606,-0.38188 -0.77408,-0.57282 -6.62101,-4.644515 -18.47998,-9.247737 -29.9003,-7.26092 44.6079,22.30396 32.63023,99.11377 -29.18298,96.21353 a 55.156092,55.156092 0 0 1 -16.13708,-3.09634 c -1.21273,-0.45413 -2.43063,-0.9547 -3.64336,-1.4914 -0.70184,-0.31995 -1.39851,-0.63991 -2.06422,-0.99599 l 0.0826,0.0516 c 8.6233,5.88304 51.21343,20.26037 95.72328,-15.99774 0,0 0.0258,-0.0671 0.0671,-0.15998 1.10436,-2.58544 15.81196,-39.2306 -12.31311,-65.14178 z"
       fill="url(#j)"
       id="path166"
       style="fill:url(#j);stroke-width:0.516056" />
    <path
       d="m 68.34649,143.19527 c 0,0 5.723063,-21.33377 40.99035,-21.33377 3.81365,0 14.71276,-10.64108 14.91402,-13.72709 0.20126,-3.08602 -22.55166,9.47479 -46.563752,-1.82684 -25.926666,-12.199576 -45.59873,1.82684 -45.59873,1.82684 0,0 7.472494,18.48513 29.379082,18.48513 -2.296451,20.27585 8.422038,43.91639 34.37451,56.32238 0.57798,0.27351 1.125,0.57799 1.71846,0.84633 -15.146247,-7.81309 -27.65029,-22.6239 -29.21394,-40.59298 z"
       fill="url(#k)"
       id="path168"
       style="fill:url(#k);stroke-width:0.516056" />
    <path
       d="m 238.78439,85.861416 c -5.38763,-12.968494 -16.30738,-26.9691 -24.87907,-31.391702 6.97708,13.680651 11.01264,27.402587 12.55564,37.641143 0,0 0,0.07225 0.0258,0.206422 -14.02124,-34.95765 -37.80111,-49.056307 -57.22031,-79.746172 -0.98567,-1.548169 -1.96617,-3.0963369 -2.92604,-4.7528775 -0.54186,-0.9340618 -0.98051,-1.780394 -1.36239,-2.5802812 a 22.56714,22.56714 0 0 1 -1.85264,-4.88705273 0.32511544,0.32511544 0 0 0 -0.27867,-0.33543656 0.44380837,0.44380837 0 0 0 -0.23223,0 0.24254644,0.24254644 0 0 0 -0.0568,0.03612394 c -0.031,0 -0.0619,0.03612394 -0.0929,0.04644506 l 0.0516,-0.06708731 C 131.36212,18.278689 120.79329,52.033928 119.8231,68.924449 c 1.44496,-0.09805 2.88475,-0.221904 4.35552,-0.221904 23.24833,0 43.49838,12.787874 54.34072,31.732305 -6.621,-4.644512 -18.47998,-9.247734 -29.9003,-7.260917 44.6079,22.303957 32.63024,99.113767 -29.18298,96.213527 a 55.156092,55.156092 0 0 1 -16.13708,-3.09633 c -1.21273,-0.45413 -2.43063,-0.95471 -3.64336,-1.49141 -0.70183,-0.31995 -1.39851,-0.63991 -2.06422,-0.99598 l 0.0826,0.0516 c -0.59863,-0.28899 -1.20241,-0.5883 -1.80104,-0.89794 0.57798,0.27351 1.125,0.57799 1.71847,0.84634 -15.177217,-7.82858 -27.68126,-22.63939 -29.24491,-40.60847 0,0 5.723063,-21.33377 40.99035,-21.33377 3.81365,0 14.71276,-10.64108 14.91402,-13.72709 -0.0464,-1.00631 -21.62791,-9.593492 -30.04479,-17.886516 -4.49485,-4.427763 -6.63132,-6.564236 -8.52525,-8.169171 A 36.69676,36.69676 0 0 0 82.470949,79.653259 57.483506,57.483506 0 0 1 82.125191,49.340115 C 69.383763,55.145748 59.475483,64.305746 52.271337,72.41299 h -0.05677 c -4.918016,-6.228799 -4.572258,-26.772998 -4.293588,-31.061426 -0.05677,-0.268349 -3.663999,1.873284 -4.12845,2.1984 A 90.175669,90.175669 0 0 0 31.670372,53.933015 108.4647,108.4647 0 0 0 20.09007,67.820089 104.68717,104.68717 0 0 0 3.447256,105.39931 c -0.05677,0.26835 -0.108372,0.54702 -0.165138,0.82053 -0.232226,1.08888 -1.28498,6.63132 -1.429476,7.81825 0,0.0929 0,-0.0877 0,0 A 143.89712,143.89712 0 0 0 0,131.34662 v 0.63475 c 0,68.49098 55.527652,124.01864 124.01864,124.01864 61.3436,0 112.2732,-44.53566 122.24856,-103.0358 0.20642,-1.58429 0.37672,-3.18406 0.5625,-4.78384 2.46675,-21.27184 -0.27351,-43.62739 -8.04531,-62.318954 z m -12.30278,6.368134 v 0.134174 z"
       fill="url(#l)"
       id="path170"
       style="fill:url(#l);stroke-width:0.516056" />
  </g>
</svg>
