<?xml version="1.0" encoding="UTF-8" standalone="no"?>
<svg
   fill="#c3c3c3"
   version="1.1"
   id="Capa_1"
   width="256"
   height="256"
   viewBox="0 0 181.76544 181.76544"
   xml:space="preserve"
   xmlns="http://www.w3.org/2000/svg"
   xmlns:svg="http://www.w3.org/2000/svg"><defs
   id="defs11" />
<g
   id="g6"
   transform="matrix(0,1,1,0,-1.5447844e-4,1.5552156e-4)">
	<g
   id="g4">
		<path
   d="m 39.141502,169.33933 c 5.34695,1.43246 10.84528,-1.742 12.28006,-7.08989 l 7.25289,-38.02119 c 1.43295,-5.34685 -1.29301,-7.44019 -6.08803,-4.67177 l -14.15855,8.17444 c -10.39235,-15.23396 -13.8374,-34.307812 -8.9012,-52.729992 9.17402,-34.23246 44.48453,-54.61893 78.715598,-45.44648 16.58291,4.44338 30.44137,15.07679 39.02539,29.94473 8.58383,14.86767 10.86206,32.18733 6.4202,48.769362 -6.36432,23.752 -25.29696,41.52568 -49.43012,46.39714 -6.996618,1.40232 -11.526578,8.2267 -10.115288,15.22546 1.41128,6.99875 8.226988,11.5264 15.225438,10.11529 9.87593,-1.9904 19.12641,-5.52522 27.50528,-10.36275 20.31018,-11.7261 35.46586,-31.10785 41.78107,-54.68234 6.23202,-23.252762 3.03584,-47.539512 -9.00143,-68.388682 C 157.61538,25.723208 138.18154,10.813858 114.92722,4.5828775 66.926442,-8.2788925 17.412342,20.308078 4.5524021,68.307788 c -6.75461,25.20854 -2.34626,51.297962 11.4110699,72.390502 l -12.6416199,7.29866 c -4.79471,2.76823 -4.34621,6.17319 1.00218,7.60809 z"
   id="path2"
   style="stroke-width:0.352013" />
	</g>
</g>
</svg>
