<?xml version="1.0" encoding="UTF-8" standalone="no"?>
<svg
   width="360"
   height="360"
   version="1.1"
   viewBox="0 0 360 360"
   xmlSpace="preserve"
   id="svg14"
   xmlns="http://www.w3.org/2000/svg"
   xmlns:svg="http://www.w3.org/2000/svg">
  <defs
     id="defs18" />
  <rect
     width="360"
     height="360"
     x="0"
     y="0"
     fill="#3867d6"
     fillOpacity="1"
     strokeWidth="16.488"
     opacity="1"
     rx="68.707"
     stopColor="#000"
     id="rect2" />
  <g
     fill="#fff"
     transform="rotate(90 531.582 -49.032)"
     id="g12">
    <g
       fill="#fff"
       transform="matrix(.4467 -.4467 .4467 .4467 528.33 298.989)"
       id="g10">
      <g
         id="g6">
        <path
           fill="#fff"
           d="M204.192 62.194c14.147-20.472 29.339-41.613 50.963-54.72 21.323 12.782 36.366 33.547 50.311 53.656 32.847 49.754 52.929 109.515 48.878 169.578 10.615 8.898 21.537 17.441 31.994 26.521 15.011 13.797 22.02 35.319 18.406 55.327-5.036 25.275-9.876 50.607-15.206 75.813-2.963 12.968-20.508 18.905-30.823 10.62-17.121-14.291-33.816-29.108-50.932-43.417-12.95 12.462-30.153 20.772-48.214 21.773-20.791 1.466-41.375-7.156-56.448-21.242-12.28 9.401-23.666 20.686-35.664 30.755-5.799 4.66-10.621 10.784-17.484 13.966-10.64 4.565-24.342-2.248-26.747-13.685-5.479-24.642-11.203-49.24-16.52-73.92-4.321-20.878 3.332-43.61 19.419-57.607 9.313-7.822 18.756-15.487 28.243-23.096 2.643-1.39 1.315-4.596 1.465-6.951-2.828-57.951 16.967-115.232 48.359-163.371zm16.803 76.332c-12.424 15.994-10.921 40.768 3.488 55.052 15.255 16.809 44.15 17.422 60.106 1.29 12.317-11.253 16.482-30.146 10.603-45.671-5.387-14.967-19.809-26.195-35.671-27.591-14.648-1.686-29.815 5.053-38.526 16.92z"
           id="path4" />
      </g>
      <path
         d="M198.263 407.819c-.213-7.266 8.83-12.262 14.942-8.417 25.87 13.32 58.027 13.314 83.896-.007 5.937-3.645 14.736.733 14.955 7.803.087 15.432.105 30.88.024 46.317.119 7.533-9.832 12.337-15.681 7.626-4.452-3.926-8.467-8.341-12.75-12.461-6.776 13.201-13.163 26.602-19.995 39.772-3.281 6.275-13.533 6.318-16.877.105-6.87-13.195-13.213-26.676-20.121-39.858-4.221 4.157-8.248 8.548-12.694 12.468-5.824 4.734-15.756-.162-15.675-7.647-.124-15.229-.043-30.465-.024-45.701z"
         id="path8" />
    </g>
  </g>
</svg>
