<?xml version="1.0" encoding="UTF-8" standalone="no"?>
<svg
   width="256"
   height="256"
   viewBox="0 0 67.733333 67.733333"
   version="1.1"
   id="svg14"
   xmlns="http://www.w3.org/2000/svg"
   xmlns:svg="http://www.w3.org/2000/svg">
  <defs
     id="defs18" />
  <g
     transform="translate(90.669,-507.469)"
     id="g12">
    <path
       d="m -56.801623,558.26829 c 9.352534,0 16.934045,-7.58187 16.934045,-16.9344 0,-9.35253 -7.581511,-16.9344 -16.934045,-16.9344 -9.352533,0 -16.934044,7.58187 -16.934044,16.9344 0,9.35253 7.581511,16.9344 16.934044,16.9344 z"
       fill="#ffffff"
       clip-path="none"
       mask="none"
       id="path2"
       style="stroke-width:0.355556" />
    <path
       d="m -71.467222,549.805 -14.663111,-25.39733 c -2.973156,5.14809 -4.538667,10.98809 -4.538667,16.93333 0,5.94524 1.5648,11.78524 4.5376,16.93333 2.9728,5.14809 7.248711,9.42329 12.397511,12.39467 5.1488,2.97138 10.989511,4.53511 16.9344,4.53333 L -42.136378,549.805 v -0.004 c -1.485156,2.57564 -3.6224,4.71466 -6.196622,6.20195 a 16.931555,16.931555 0 0 1 -16.935823,0.002 16.931555,16.931555 0 0 1 -6.198399,-6.19982 z"
       fill="#229342"
       clip-path="none"
       mask="none"
       id="path4"
       style="stroke-width:0.355556" />
    <path
       d="M -42.137445,549.80393 -56.8002,575.20127 c 5.944888,10e-4 11.785244,-1.56374 16.933688,-4.53583 5.148445,-2.97209 9.423645,-7.24764 12.395734,-12.39644 a 33.863111,33.863111 0 0 0 4.535111,-16.93405 c -0.0011,-5.94488 -1.567289,-11.78488 -4.541156,-16.93262 h -29.325866 l -0.0036,0.002 a 16.931555,16.931555 0 0 1 8.468978,2.2656 c 2.575289,1.48587 4.7136,3.62311 6.200533,6.19769 a 16.931555,16.931555 0 0 1 -3.55e-4,16.93618 z"
       fill="#fbc116"
       clip-path="none"
       mask="none"
       id="path6"
       style="stroke-width:0.355556" />
    <path
       d="m -56.801623,554.74402 c 7.404089,0 13.406222,-6.00213 13.406222,-13.40658 0,-7.40444 -6.002133,-13.40622 -13.406222,-13.40622 -7.404088,0 -13.406222,6.00214 -13.406222,13.40622 0,7.40409 6.002134,13.40658 13.406222,13.40658 z"
       fill="#1a73e8"
       clip-path="none"
       mask="none"
       id="path8"
       style="stroke-width:0.355556" />
    <path
       d="m -56.801623,524.4034 h 29.325867 c -2.971734,-5.1488 -7.246578,-9.42471 -12.395022,-12.39751 A 33.859555,33.859555 0 0 0 -56.804111,507.469 c -5.944889,3.6e-4 -11.784889,1.56587 -16.932623,4.53938 a 33.859555,33.859555 0 0 0 -12.393244,12.39893 l 14.663111,25.39733 0.0039,0.002 a 16.931555,16.931555 0 0 1 -0.0053,-16.93618 c 1.485867,-2.57493 3.624178,-4.71324 6.198755,-6.19947 2.574578,-1.48622 5.495467,-2.2688 8.468623,-2.26809 z"
       fill="#e33b2e"
       clip-path="none"
       mask="none"
       id="path10"
       style="stroke-width:0.355556" />
  </g>
</svg>
