<?xml version="1.0" encoding="UTF-8" standalone="no"?>
<svg
   width="256"
   height="256"
   version="1.1"
   id="svg4"
   xmlns="http://www.w3.org/2000/svg"
   xmlns:svg="http://www.w3.org/2000/svg">
  <defs
     id="defs8" />
  <path
     fill-rule="evenodd"
     clip-rule="evenodd"
     d="M 128.10591,2.1329358 C 57.266653,2.1329358 0,59.821766 0,131.19072 c 0,57.04901 36.692718,105.3398 87.595244,122.43143 6.364127,1.28489 8.69528,-2.77693 8.69528,-6.19368 0,-2.99196 -0.209778,-13.24746 -0.209778,-23.933 -35.635963,7.69359 -43.056845,-15.38456 -43.056845,-15.38456 -5.726927,-14.95714 -14.21243,-18.80132 -14.21243,-18.80132 -11.663632,-7.90599 0.8496,-7.90599 0.8496,-7.90599 12.938031,0.85485 19.726957,13.24745 19.726957,13.24745 11.451233,19.65616 29.903792,14.1023 37.327296,10.68293 1.059376,-8.33342 4.455146,-14.1023 8.060706,-17.30665 -28.422241,-2.99195 -58.326033,-14.1023 -58.326033,-63.67536 0,-14.1023 5.087106,-25.640066 13.147809,-34.613301 -1.271777,-3.204352 -5.726928,-16.454428 1.274399,-34.188499 0,0 10.816655,-3.419374 35.205919,13.247454 a 123.16565,123.16565 0 0 1 32.027786,-4.274218 c 10.81666,0 21.84309,1.497287 32.02517,4.274218 24.39189,-16.666828 35.20854,-13.247454 35.20854,-13.247454 7.00133,17.734071 2.54356,30.984147 1.27178,34.188499 8.2731,8.973235 13.15043,20.511001 13.15043,34.613301 0,49.57306 -29.90379,60.46838 -58.53843,63.67536 4.66755,4.05919 8.69528,11.75016 8.69528,23.93037 0,17.30665 -0.20978,31.19655 -0.20978,35.46815 0,3.41937 2.33378,7.48119 8.69528,6.19892 50.90253,-17.09687 87.59525,-65.38504 87.59525,-122.43405 C 256.20921,59.821766 198.73277,2.1329358 128.10591,2.1329358 Z"
     fill="#24292f"
     id="path2"
     style="stroke-width:2.62222" />
</svg>
